<svg width="100%" height="100%"  viewBox="0 0 444 77" fill="none" xmlns="http://www.w3.org/2000/svg">
<rect x="2.69092" y="7.69385"  width="100%" height="35" transform="rotate(3.40787 2.69092 7.69385)" fill="#4CA8A9"/>
<path d="M30.6843 33.403L28.4562 33.2703L29.201 20.7645L19.8315 32.7568L18.0347 32.6498L19.0334 15.8795L21.2614 16.0121L20.5153 28.5419L29.8861 16.5257L31.6829 16.6327L30.6843 33.403ZM42.7618 27.1018L43.0586 22.1186L45.1429 22.2428L44.4296 34.2215L42.3453 34.0974L42.6434 29.0903L36.4384 28.7208L36.1403 33.7279L34.056 33.6038L34.7693 21.625L36.8536 21.7491L36.5568 26.7323L42.7618 27.1018ZM58.6173 23.0451L58.0224 33.0354L59.6755 33.1339L59.3659 38.3327L57.3056 38.21L57.4967 34.9997L48.5127 34.4647L48.3215 37.675L46.2611 37.5523L46.5707 32.3535L48.0321 32.4405C48.8615 31.4321 49.3328 29.9775 49.446 28.0769L49.777 22.5187L58.6173 23.0451ZM50.4039 32.5818L55.9621 32.9128L56.4414 24.863L51.7218 24.582L51.5064 28.1996C51.4017 29.9564 51.0343 31.4172 50.4039 32.5818ZM64.0766 31.8092L71.2136 23.7952L72.8906 23.8951L72.1773 35.8739L70.1169 35.7512L70.6177 27.3421L63.4807 35.356L61.8037 35.2561L62.517 23.2774L64.5773 23.4001L64.0766 31.8092ZM83.6945 30.3808C84.8939 30.9651 85.4536 31.9281 85.3737 33.2697C85.3129 34.2919 84.9285 35.0945 84.2206 35.6774C83.5136 36.2444 82.5532 36.4918 81.3394 36.4195L75.35 36.0628L76.0633 24.084L81.5735 24.4122C82.7555 24.4825 83.6562 24.8327 84.2759 25.4626C84.9115 26.0935 85.1998 26.9041 85.1409 27.8944C85.0724 29.0443 84.5903 29.8731 83.6945 30.3808ZM81.3664 26.2751L77.9884 26.074L77.8015 29.2124L81.1795 29.4136C82.3934 29.4859 83.0322 28.987 83.0959 27.9168C83.1568 26.8947 82.5803 26.3474 81.3664 26.2751ZM77.4991 34.2914L81.3323 34.5197C81.9392 34.5558 82.411 34.4397 82.7475 34.1712C83.1 33.9037 83.292 33.5064 83.3234 32.9793C83.3529 32.4842 83.208 32.0909 82.8887 31.7994C82.5864 31.4929 82.1318 31.3216 81.5249 31.2854L77.6917 31.0572L77.4991 34.2914ZM89.6953 33.3347L96.8323 25.3208L98.5093 25.4207L97.796 37.3994L95.7356 37.2767L96.2364 28.8676L89.0994 36.8816L87.4223 36.7817L88.1357 24.8029L90.196 24.9256L89.6953 33.3347ZM111.984 26.223L111.389 36.2133L113.042 36.3118L112.732 41.5106L110.672 41.3879L110.863 38.1776L101.879 37.6426L101.688 40.8529L99.6275 40.7302L99.9371 35.5314L101.399 35.6184C102.228 34.61 102.699 33.1554 102.812 31.2548L103.143 25.6966L111.984 26.223ZM103.77 35.7597L109.328 36.0907L109.808 28.0409L105.088 27.7599L104.873 31.3775C104.768 33.1343 104.401 34.5951 103.77 35.7597ZM119.768 36.1112L123.777 26.9253L126.005 27.058L120.36 39.4884C119.768 40.8156 118.988 41.8029 118.02 42.4505C117.05 43.1141 115.977 43.3708 114.8 43.2205L114.916 41.28C116.362 41.4783 117.488 40.7439 118.293 39.0768L118.51 38.657L114.026 26.3447L116.23 26.4759L119.768 36.1112ZM137.073 29.7847L137.196 27.7244L139.28 27.8485L138.567 39.8273L136.482 39.7032L136.605 37.6428C135.489 39.1631 133.932 39.8639 131.936 39.745C130.243 39.6442 128.85 38.9521 127.756 37.6688C126.647 36.3686 126.145 34.8401 126.25 33.0832C126.353 31.3423 127.033 29.8921 128.288 28.7327C129.543 27.5732 131.009 27.0434 132.686 27.1433C134.683 27.2622 136.145 28.1427 137.073 29.7847ZM132.319 37.7482C133.533 37.8205 134.572 37.4736 135.435 36.7076C136.3 35.9096 136.768 34.9117 136.839 33.7138C136.911 32.4999 136.564 31.4615 135.798 30.5984C135.033 29.7194 134.044 29.2437 132.83 29.1714C131.632 29.1001 130.601 29.4554 129.737 30.2375C128.874 31.0035 128.406 31.9935 128.334 33.2073C128.263 34.4052 128.609 35.4516 129.373 36.3466C130.139 37.2097 131.121 37.6769 132.319 37.7482ZM143.54 28.1022L152.428 28.6315L151.715 40.6102L149.631 40.4861L150.224 30.5198L145.504 30.2387L145.213 35.1261C145.099 37.0427 144.635 38.3854 143.819 39.1543C143.005 39.9073 141.86 40.1676 140.383 39.9354L140.5 37.9709C141.324 38.1322 141.95 37.9851 142.377 37.5297C142.806 37.0584 143.058 36.1998 143.132 34.954L143.54 28.1022ZM157.414 33.256L160.385 33.4329C161.583 33.5042 162.551 33.9226 163.291 34.6879C164.048 35.4382 164.393 36.3804 164.325 37.5144C164.258 38.6484 163.803 39.5509 162.962 40.2221C162.121 40.8773 161.11 41.1697 159.928 41.0993L154.873 40.7983L155.586 28.8195L157.671 28.9436L157.414 33.256ZM157.073 38.9819L160.044 39.1588C160.651 39.1949 161.164 39.0492 161.584 38.7216C162.005 38.394 162.231 37.9507 162.265 37.3917C162.298 36.8327 162.118 36.3651 161.723 35.989C161.346 35.5979 160.862 35.3847 160.271 35.3495L157.3 35.1726L157.073 38.9819ZM175.043 34.979L175.34 29.9958L177.424 30.1199L176.711 42.0987L174.627 41.9746L174.925 36.9675L168.72 36.598L168.422 41.6051L166.337 41.481L167.051 29.5022L169.135 29.6263L168.838 34.6095L175.043 34.979ZM190.084 41.3804C188.797 42.5219 187.268 43.0399 185.495 42.9344C183.722 42.8288 182.265 42.1329 181.123 40.8468C179.982 39.5607 179.464 38.0312 179.569 36.2583C179.675 34.4855 180.371 33.0282 181.657 31.8867C182.943 30.7451 184.473 30.2271 186.245 30.3327C188.018 30.4383 189.476 31.1341 190.617 32.4202C191.774 33.7233 192.3 35.2533 192.195 37.0102C192.09 38.767 191.387 40.2238 190.084 41.3804ZM185.616 40.898C186.814 40.9693 187.845 40.6219 188.708 39.8559C189.571 39.0898 190.038 38.0999 190.111 36.886C190.183 35.6722 189.836 34.6337 189.07 33.7707C188.304 32.9076 187.322 32.4404 186.124 32.3691C184.942 32.2987 183.92 32.6465 183.057 33.4126C182.194 34.1786 181.726 35.1686 181.654 36.3824C181.581 37.5963 181.928 38.6347 182.694 39.4978C183.46 40.3609 184.434 40.8276 185.616 40.898ZM205.896 44.1492C204.092 44.0418 202.626 43.3534 201.499 42.0842C200.374 40.799 199.864 39.262 199.971 37.4732C200.077 35.6844 200.765 34.2267 202.034 33.1001C203.305 31.9576 204.842 31.4401 206.647 31.5476C207.829 31.6179 208.874 31.9687 209.782 32.5998C210.691 33.2149 211.348 34.0154 211.755 35.0013L209.946 35.9034C209.68 35.2464 209.24 34.7073 208.624 34.2859C208.023 33.8655 207.324 33.6315 206.526 33.5839C205.328 33.5126 204.297 33.86 203.434 34.626C202.586 35.409 202.126 36.3994 202.055 37.5973C201.985 38.7792 202.324 39.8092 203.073 40.6873C203.839 41.5504 204.821 42.0175 206.019 42.0889C206.818 42.1364 207.547 41.9956 208.208 41.6663C208.87 41.321 209.387 40.8389 209.761 40.22L211.472 41.3557C210.888 42.2827 210.1 42.9971 209.109 43.499C208.117 44.001 207.046 44.2177 205.896 44.1492ZM223.961 38.7094L229.51 45.2428L226.923 45.0888L221.799 39.0856L221.46 44.7635L219.376 44.6394L220.089 32.6606L222.174 32.7847L221.858 38.0793L227.349 33.0929L230.032 33.2527L223.961 38.7094ZM240.858 35.965L240.981 33.9046L243.065 34.0288L242.352 46.0075L240.267 45.8834L240.39 43.8231C239.274 45.3434 237.717 46.0441 235.721 45.9252C234.028 45.8244 232.634 45.1324 231.541 43.8491C230.432 42.5489 229.93 41.0203 230.035 39.2635C230.138 37.5225 230.818 36.0724 232.073 34.9129C233.328 33.7535 234.794 33.2237 236.471 33.3236C238.468 33.4424 239.93 34.3229 240.858 35.965ZM236.104 43.9285C237.318 44.0008 238.356 43.6539 239.219 42.8878C240.084 42.0898 240.553 41.0919 240.624 39.894C240.696 38.6802 240.349 37.6417 239.583 36.7787C238.818 35.8996 237.829 35.424 236.615 35.3517C235.417 35.2804 234.386 35.6357 233.522 36.4177C232.659 37.1838 232.191 38.1737 232.119 39.3876C232.048 40.5855 232.394 41.6319 233.158 42.5269C233.924 43.39 234.906 43.8572 236.104 43.9285ZM255.58 40.5923L260.243 47.073L257.8 46.9275L253.658 40.9827L253.32 46.6607L251.259 46.538L251.597 40.86L246.779 46.2712L244.36 46.1271L249.735 40.2442L245.312 34.1626L247.732 34.3067L251.657 39.8538L251.973 34.5592L254.033 34.6819L253.718 39.9765L258.273 34.9344L260.717 35.0799L255.58 40.5923ZM273.253 35.8264L272.658 45.8167L274.311 45.9151L274.001 51.1139L271.941 50.9912L272.132 47.7809L263.148 47.2459L262.957 50.4563L260.897 50.3336L261.206 45.1348L262.668 45.2218C263.497 44.2133 263.968 42.7588 264.081 40.8581L264.412 35.3L273.253 35.8264ZM265.039 45.363L270.597 45.694L271.077 37.6443L266.357 37.3632L266.142 40.9808C266.037 42.7377 265.67 44.1984 265.039 45.363ZM278.98 40.4951L281.951 40.672C283.149 40.7433 284.117 41.1617 284.857 41.927C285.614 42.6773 285.959 43.6195 285.891 44.7535C285.823 45.8874 285.369 46.79 284.528 47.4612C283.687 48.1164 282.676 48.4088 281.494 48.3384L276.439 48.0374L277.152 36.0586L279.237 36.1827L278.98 40.4951ZM287.22 48.6794L287.933 36.7006L290.018 36.8247L289.304 48.8035L287.22 48.6794ZM278.639 46.221L281.61 46.3979C282.217 46.434 282.73 46.2883 283.15 45.9607C283.571 45.6331 283.797 45.1898 283.831 44.6308C283.864 44.0718 283.683 43.6042 283.289 43.2281C282.912 42.837 282.427 42.6238 281.837 42.5886L278.866 42.4117L278.639 46.221ZM302.953 37.595L305.181 37.7277L304.468 49.7065L302.431 49.5852L302.949 40.8886L298.775 46.7949L298.511 46.7792L295.067 40.4192L294.549 49.1158L292.489 48.9931L293.202 37.0144L295.43 37.147L298.831 43.4323L302.953 37.595ZM318.704 47.9576L322.713 38.7717L324.941 38.9044L319.296 51.3348C318.705 52.662 317.924 53.6494 316.956 54.297C315.987 54.9605 314.914 55.2172 313.737 55.0669L313.852 53.1264C315.299 53.3247 316.425 52.5903 317.229 50.9232L317.447 50.5034L312.963 38.1911L315.167 38.3223L318.704 47.9576ZM333.888 45.1833L334.228 39.4574L336.313 39.5815L335.599 51.5603L333.515 51.4362L333.772 47.1239C332.773 47.4811 331.682 47.6245 330.501 47.5542C328.951 47.4619 327.783 47.0237 326.997 46.2395C326.21 45.4554 325.858 44.3605 325.942 42.955L326.179 38.9781L328.263 39.1022L328.033 42.9594C327.981 43.8378 328.175 44.4905 328.614 44.9173C329.07 45.3292 329.786 45.5641 330.76 45.6221C331.862 45.6878 332.904 45.5415 333.888 45.1833ZM350.565 47.4026L340.527 46.8048C340.672 47.8713 341.11 48.7309 341.84 49.3835C342.572 50.0201 343.512 50.3726 344.662 50.4411C346.244 50.5352 347.428 50.0207 348.216 48.8976L349.929 50.0094C348.64 51.7438 346.829 52.5416 344.497 52.4027C342.613 52.2905 341.099 51.6073 339.955 50.3531C338.846 49.0689 338.345 47.5244 338.452 45.7196C338.56 43.8988 339.233 42.4322 340.469 41.3197C341.706 40.1912 343.251 39.6822 345.104 39.7925C346.861 39.8971 348.253 40.6051 349.281 41.9166C350.327 43.197 350.798 44.7157 350.693 46.4725C350.675 46.776 350.632 47.086 350.565 47.4026ZM344.987 41.757C343.885 41.6914 342.94 41.9477 342.152 42.5259C341.381 43.105 340.875 43.9244 340.636 44.9841L348.637 45.4606C348.527 44.3481 348.139 43.4674 347.472 42.8186C346.806 42.1699 345.977 41.816 344.987 41.757ZM361.44 46.0787L361.736 41.0955L363.821 41.2196L363.107 53.1984L361.023 53.0743L361.321 48.0671L355.116 47.6976L354.818 52.7048L352.734 52.5806L353.447 40.6019L355.531 40.726L355.234 45.7092L361.44 46.0787ZM368.553 49.9403L375.69 41.9264L377.367 42.0263L376.654 54.005L374.593 53.8824L375.094 45.4733L367.957 53.4872L366.28 53.3873L366.993 41.4085L369.054 41.5312L368.553 49.9403ZM384.411 48.264L389.96 54.7974L387.373 54.6434L382.249 48.6402L381.911 54.3181L379.826 54.194L380.54 42.2152L382.624 42.3393L382.309 47.6339L387.799 42.6475L390.482 42.8073L384.411 48.264ZM400.999 53.9401C399.713 55.0817 398.183 55.5997 396.41 55.4941C394.638 55.3885 393.18 54.6927 392.039 53.4065C390.897 52.1204 390.379 50.5909 390.485 48.8181C390.59 47.0452 391.286 45.588 392.572 44.4464C393.859 43.3048 395.388 42.7869 397.161 42.8924C398.934 42.998 400.391 43.6938 401.533 44.98C402.689 46.283 403.215 47.813 403.11 49.5699C403.006 51.3268 402.302 52.7835 400.999 53.9401ZM396.532 53.4577C397.73 53.529 398.76 53.1817 399.623 52.4156C400.486 51.6496 400.954 50.6596 401.026 49.4458C401.098 48.2319 400.752 47.1935 399.986 46.3304C399.219 45.4673 398.237 45.0001 397.04 44.9288C395.858 44.8584 394.835 45.2063 393.972 45.9723C393.109 46.7384 392.641 47.7283 392.569 48.9422C392.497 50.156 392.844 51.1945 393.61 52.0575C394.376 52.9206 395.35 53.3873 396.532 53.4577ZM415.675 44.3075L417.903 44.4401L417.19 56.4189L415.153 56.2977L415.671 47.6011L411.497 53.5074L411.233 53.4917L407.789 47.1317L407.271 55.8283L405.211 55.7056L405.924 43.7268L408.152 43.8595L411.553 50.1447L415.675 44.3075ZM422.796 51.8241L421.191 51.7285L421.157 44.6339L421.442 39.8424L423.958 39.9922L423.672 44.7837L422.796 51.8241ZM421.674 56.9504C421.242 56.9247 420.884 56.7511 420.599 56.4296C420.313 56.108 420.183 55.7317 420.209 55.3004C420.235 54.8692 420.408 54.5109 420.73 54.2255C421.051 53.9401 421.428 53.8102 421.859 53.8359C422.306 53.8625 422.665 54.0362 422.934 54.3567C423.219 54.6783 423.349 55.0547 423.324 55.4859C423.298 55.9171 423.124 56.2754 422.803 56.5608C422.497 56.8472 422.121 56.977 421.674 56.9504Z" fill="white"/>
</svg>
