<svg width="613" height="669" viewBox="0 0 613 669" fill="none" xmlns="http://www.w3.org/2000/svg">
<path fill-rule="evenodd" clip-rule="evenodd" d="M181.448 95.6679V191.333L165.634 175.23C152.027 161.371 147.42 158.384 132.601 153.813C84.7239 139.048 34.5381 158.026 13.894 198.708C1.46478 223.201 0.0406183 236.146 0.000288087 324.978C-0.019877 370.125 1.02114 412.636 2.31423 419.447C9.2233 455.82 27.7601 481.861 55.9433 494.786C76.1865 504.068 113.066 506.417 133.292 499.709C147.873 494.874 165.43 482.022 172.626 470.917C175.399 466.638 178.519 463.135 179.558 463.132C180.596 463.127 181.448 470.487 181.448 479.485V495.845H209.175H236.902V247.923V0H209.175H181.448V95.6679ZM358.054 146.199C344.811 150.518 338.928 154.387 326.025 167.274L310.215 183.06L309.479 166.41L308.741 149.76H281.014H253.286L252.644 408.38L252.003 667H280.973H309.943L310.603 567.572L311.261 468.143L320.083 479.933C325.896 487.7 334.496 494.771 345.29 500.658C360.444 508.921 363.597 509.664 387.294 510.547C408.52 511.337 415.651 510.58 428.884 506.127C466.779 493.371 489.71 462.727 496.515 415.735C500.4 388.926 499.525 254.099 495.315 230.508C488.258 190.963 465.396 160.271 434.135 148.381C412.714 140.234 379.291 139.277 358.054 146.199ZM411.139 201.681C424.73 209.179 435.082 225.479 438.715 245.111C440.449 254.489 441.112 288.167 440.522 336.981C439.733 402.256 438.947 415.44 435.385 423.178C429.045 436.943 418.509 448.206 407.149 453.359C393.383 459.603 367.63 459.538 353.706 453.225C340.748 447.351 324.701 431.625 317.036 417.293C311.453 406.85 311.236 404.046 310.49 332.74C309.585 246.068 310.613 239.826 329.221 219.159C346.958 199.458 360.676 193.45 384.775 194.824C395.077 195.411 403.963 197.721 411.139 201.681ZM130.332 202.642C147.316 207.679 166.312 224.809 174.174 242.186C180.064 255.202 180.188 256.938 180.133 327.208C180.077 395.395 179.805 399.525 174.617 410.741C168.459 424.053 152.96 440.65 140.843 446.905C136.387 449.208 126.4 451.66 118.654 452.354C92.3791 454.71 73.439 445.332 62.2373 424.423C56.8129 414.295 56.6768 411.934 56.6768 327.208C56.6768 241.844 56.7751 240.173 62.4365 228.698C68.9699 215.454 82.1302 205.179 97.012 201.701C111.634 198.285 116.063 198.411 130.332 202.642ZM292.432 134.704C283.454 134.704 275.727 132.886 269.25 129.25C262.81 125.576 257.848 120.386 254.364 113.682C250.879 106.939 249.136 98.9658 249.136 89.7613C249.136 80.784 250.879 72.9052 254.364 66.1249C257.848 59.3446 262.754 54.0605 269.079 50.2726C275.443 46.4848 282.905 44.5908 291.466 44.5908C297.223 44.5908 302.583 45.5189 307.545 47.3749C312.545 49.1931 316.901 51.9393 320.614 55.6135C324.364 59.2878 327.28 63.909 329.364 69.4772C331.447 75.0075 332.489 81.4848 332.489 88.909V95.5567H273.057V95.6135C273.057 99.9317 273.852 103.663 275.443 106.807C277.072 109.951 279.364 112.375 282.318 114.079C285.273 115.784 288.776 116.636 292.829 116.636C295.519 116.636 297.981 116.257 300.216 115.5C302.451 114.742 304.364 113.606 305.954 112.091C307.545 110.576 308.757 108.72 309.591 106.523L331.977 108C330.841 113.379 328.511 118.076 324.989 122.091C321.504 126.068 316.996 129.174 311.466 131.409C305.973 133.606 299.629 134.704 292.432 134.704ZM275.5 71.9772C274.032 74.563 273.225 77.4229 273.079 80.5567H309.704C309.704 77.0719 308.947 73.9848 307.432 71.2954C305.917 68.606 303.814 66.5037 301.125 64.9885C298.473 63.4355 295.386 62.659 291.864 62.659C288.189 62.659 284.932 63.5113 282.091 65.2158C279.288 66.8825 277.091 69.1363 275.5 71.9772ZM419.304 45.7272L388.792 133H361.52L331.008 45.7272H356.577L374.702 108.17H375.611L393.679 45.7272H419.304ZM350.864 667V550.636H326.659V667H350.864ZM372.253 665.75C376.609 667.682 381.571 668.648 387.139 668.648C391.457 668.648 395.264 668.079 398.56 666.943C401.855 665.769 404.677 664.159 407.026 662.114C409.374 660.03 411.249 657.625 412.651 654.898H413.332V667H436.287V608.136C436.287 602.947 435.283 598.496 433.276 594.784C431.268 591.034 428.522 587.966 425.037 585.579C421.59 583.193 417.632 581.432 413.162 580.295C408.73 579.159 404.09 578.591 399.242 578.591C392.272 578.591 386.135 579.651 380.832 581.773C375.567 583.856 371.268 586.848 367.935 590.75C364.601 594.614 362.367 599.197 361.23 604.5L383.617 606.318C384.45 603.439 386.154 601.053 388.73 599.159C391.306 597.227 394.772 596.261 399.128 596.261C403.257 596.261 406.439 597.246 408.673 599.216C410.946 601.185 412.082 603.97 412.082 607.568V607.909C412.082 609.765 411.382 611.167 409.98 612.114C408.579 613.06 406.325 613.78 403.219 614.273C400.113 614.727 396.022 615.22 390.946 615.75C386.628 616.167 382.499 616.886 378.56 617.909C374.658 618.932 371.173 620.447 368.105 622.454C365.037 624.462 362.613 627.114 360.832 630.409C359.052 633.704 358.162 637.776 358.162 642.625C358.162 648.382 359.412 653.193 361.912 657.057C364.45 660.882 367.897 663.78 372.253 665.75ZM403.503 649.841C400.776 651.242 397.632 651.943 394.071 651.943C390.359 651.943 387.291 651.091 384.867 649.386C382.48 647.644 381.287 645.125 381.287 641.829C381.287 639.557 381.874 637.663 383.048 636.148C384.223 634.595 385.87 633.364 387.992 632.454C390.113 631.545 392.594 630.882 395.435 630.466C396.76 630.276 398.238 630.068 399.867 629.841C401.495 629.576 403.124 629.292 404.753 628.989C406.382 628.648 407.84 628.288 409.128 627.909C410.454 627.492 411.495 627.038 412.253 626.545V635.807C412.253 638.875 411.476 641.621 409.923 644.045C408.37 646.47 406.23 648.401 403.503 649.841ZM486.497 668.704C477.558 668.704 469.868 666.81 463.429 663.023C457.028 659.197 452.103 653.894 448.656 647.114C445.247 640.333 443.543 632.53 443.543 623.704C443.543 614.765 445.266 606.924 448.713 600.182C452.198 593.401 457.141 588.117 463.543 584.329C469.944 580.504 477.558 578.591 486.384 578.591C493.997 578.591 500.664 579.973 506.384 582.739C512.103 585.504 516.63 589.386 519.963 594.386C523.297 599.386 525.134 605.257 525.474 612H502.634C501.99 607.644 500.285 604.14 497.52 601.489C494.793 598.799 491.213 597.454 486.781 597.454C483.031 597.454 479.755 598.477 476.952 600.523C474.187 602.53 472.028 605.466 470.475 609.329C468.921 613.193 468.145 617.871 468.145 623.364C468.145 628.932 468.903 633.667 470.418 637.568C471.971 641.47 474.149 644.443 476.952 646.489C479.755 648.534 483.031 649.557 486.781 649.557C489.547 649.557 492.028 648.989 494.225 647.852C496.459 646.716 498.296 645.068 499.736 642.909C501.213 640.712 502.179 638.079 502.634 635.011H525.474C525.096 641.678 523.278 647.549 520.02 652.625C516.8 657.663 512.35 661.602 506.668 664.443C500.986 667.284 494.262 668.704 486.497 668.704ZM549.563 663.25C556.04 666.886 563.767 668.704 572.744 668.704C579.941 668.704 586.286 667.606 591.779 665.409C597.309 663.174 601.816 660.068 605.301 656.091C608.824 652.076 611.154 647.379 612.29 642L589.904 640.523C589.07 642.72 587.858 644.576 586.267 646.091C584.676 647.606 582.763 648.742 580.529 649.5C578.294 650.257 575.832 650.636 573.142 650.636C569.089 650.636 565.585 649.784 562.631 648.079C559.676 646.375 557.385 643.951 555.756 640.807C554.165 637.663 553.369 633.932 553.369 629.614V629.557H612.801V622.909C612.801 615.485 611.76 609.007 609.676 603.477C607.593 597.909 604.676 593.288 600.926 589.614C597.214 585.939 592.858 583.193 587.858 581.375C582.896 579.519 577.536 578.591 571.779 578.591C563.218 578.591 555.756 580.485 549.392 584.273C543.066 588.06 538.161 593.345 534.676 600.125C531.191 606.905 529.449 614.784 529.449 623.761C529.449 632.966 531.191 640.939 534.676 647.682C538.161 654.386 543.123 659.576 549.563 663.25ZM553.392 614.557C553.538 611.423 554.345 608.563 555.813 605.977C557.404 603.136 559.6 600.882 562.404 599.216C565.244 597.511 568.502 596.659 572.176 596.659C575.699 596.659 578.786 597.435 581.438 598.989C584.127 600.504 586.229 602.606 587.744 605.295C589.26 607.985 590.017 611.072 590.017 614.557H553.392Z" fill="black"/>
</svg>
