<?xml version="1.0" standalone="no"?>
<!DOCTYPE svg PUBLIC "-//W3C//DTD SVG 20010904//EN"
 "http://www.w3.org/TR/2001/REC-SVG-20010904/DTD/svg10.dtd">
<svg version="1.0" xmlns="http://www.w3.org/2000/svg"
 width="800.000000pt" height="572.000000pt" viewBox="0 0 800.000000 572.000000"
 preserveAspectRatio="xMidYMid meet">

<g transform="translate(0.000000,572.000000) scale(0.100000,-0.100000)"
fill="#000000" stroke="none">
<path d="M1540 5451 c-157 -64 -291 -120 -298 -124 -9 -6 -12 -324 -12 -1398
l0 -1389 340 0 340 0 0 1445 c0 795 3 1445 8 1444 4 0 133 -53 287 -118 l280
-117 3 -1327 2 -1327 198 2 197 3 5 892 5 892 195 -108 195 -109 3 -786 2
-786 55 0 55 0 0 814 0 815 -32 24 c-18 13 -69 43 -113 67 -92 50 -124 67
-292 162 l-123 68 -90 0 -90 0 0 -30 c0 -27 -3 -30 -30 -30 l-30 0 0 415 0
415 -22 14 c-48 30 -701 296 -727 295 -14 -1 -154 -53 -311 -118z"/>
<path d="M1970 5145 l0 -85 60 0 60 0 0 85 0 85 -60 0 -60 0 0 -85z"/>
<path d="M2140 5085 l0 -85 60 0 60 0 0 85 0 85 -60 0 -60 0 0 -85z"/>
<path d="M4585 5121 c-69 -17 -116 -55 -151 -121 -15 -29 -19 -64 -22 -202
l-4 -168 -32 0 c-31 0 -32 -1 -28 -35 l4 -35 69 0 69 0 0 178 c0 199 7 236 50
277 26 25 40 30 98 33 63 4 71 2 101 -24 55 -46 61 -72 61 -279 l0 -185 40 0
40 0 0 188 c0 225 -9 261 -77 321 -59 52 -138 71 -218 52z"/>
<path d="M2320 5035 l0 -85 55 0 55 0 0 85 0 85 -55 0 -55 0 0 -85z"/>
<path d="M2922 5098 c9 -13 47 -73 86 -135 l72 -112 -71 -113 c-40 -62 -80
-125 -90 -140 -11 -14 -19 -29 -19 -33 0 -3 21 -5 46 -3 l47 3 76 120 77 120
52 3 52 3 0 -125 0 -126 40 0 40 0 0 125 0 125 53 0 52 0 79 -125 80 -125 47
0 48 0 -90 139 c-49 77 -89 144 -89 150 0 6 36 67 80 137 44 69 80 128 80 130
0 3 -19 4 -42 2 -41 -3 -42 -4 -113 -118 l-72 -115 -56 -3 -57 -3 0 121 0 120
-40 0 -40 0 0 -120 0 -120 -54 0 -54 0 -74 120 -73 120 -44 0 c-43 0 -43 0
-29 -22z"/>
<path d="M3762 4918 c4 -226 13 -267 76 -320 71 -60 208 -58 285 3 l37 30 0
-36 c0 -34 1 -35 40 -35 l40 0 0 280 0 280 -39 0 -39 0 -4 -192 c-3 -162 -6
-198 -21 -226 -27 -50 -71 -72 -144 -72 -55 0 -66 3 -97 30 -46 41 -56 91 -56
295 l0 165 -41 0 -41 0 4 -202z"/>
<path d="M1970 4805 l0 -85 60 0 61 0 -3 83 -3 82 -57 3 -58 3 0 -86z"/>
<path d="M2140 4745 l0 -85 60 0 60 0 0 85 0 85 -60 0 -60 0 0 -85z"/>
<path d="M2320 4685 l0 -85 55 0 55 0 0 85 0 85 -55 0 -55 0 0 -85z"/>
<path d="M1970 4455 l0 -86 58 3 57 3 3 83 3 82 -61 0 -60 0 0 -85z"/>
<path d="M2140 4405 l0 -85 60 0 60 0 0 85 0 85 -60 0 -60 0 0 -85z"/>
<path d="M2320 4345 l0 -85 55 0 55 0 0 85 0 85 -55 0 -55 0 0 -85z"/>
<path d="M4237 4406 c-26 -7 -62 -26 -79 -42 -50 -47 -60 -85 -66 -241 -5
-142 -5 -143 -28 -143 -20 0 -24 -5 -24 -30 l0 -30 65 0 65 0 0 170 c0 189 7
218 60 245 64 33 156 11 185 -45 12 -23 15 -67 15 -200 l0 -170 40 0 40 0 0
145 c0 79 -5 167 -11 196 -15 70 -64 124 -132 144 -60 18 -67 18 -130 1z"/>
<path d="M4807 4409 c-97 -23 -166 -86 -192 -173 -19 -62 -19 -80 1 -145 32
-108 127 -174 249 -174 112 0 202 56 242 151 22 53 18 155 -7 207 -48 99 -183
161 -293 134z m136 -73 c39 -16 82 -61 96 -99 20 -51 13 -126 -14 -173 -47
-80 -163 -108 -255 -61 -126 63 -125 263 2 326 50 24 123 28 171 7z"/>
<path d="M6175 4411 c-69 -18 -108 -48 -141 -111 -15 -29 -19 -66 -22 -207
l-4 -173 36 0 36 0 0 65 0 65 145 0 145 0 0 -65 0 -65 35 0 35 0 0 145 c0 172
-11 235 -51 280 -49 55 -143 84 -214 66z m125 -76 c41 -21 60 -64 67 -146 l6
-69 -148 0 -148 0 5 68 c6 78 27 125 66 146 35 20 115 20 152 1z"/>
<path d="M6745 4411 c-40 -10 -86 -35 -107 -58 -39 -42 -48 -88 -48 -233 l0
-140 -30 0 -30 0 0 -85 0 -85 30 0 c30 0 30 1 30 55 l0 55 205 0 205 0 0 -55
0 -55 35 0 35 0 0 85 0 85 -30 0 -30 0 0 126 c0 69 -5 145 -11 169 -16 62 -79
119 -148 134 -57 12 -63 12 -106 2z m136 -84 c47 -32 58 -71 58 -219 l1 -128
-140 0 -140 0 0 143 c0 154 9 184 62 213 39 22 120 17 159 -9z"/>
<path d="M3520 4165 l0 -245 35 0 35 0 0 215 0 215 140 0 140 0 0 -215 0 -215
35 0 35 0 0 245 0 245 -210 0 -210 0 0 -245z"/>
<path d="M5240 4165 l0 -245 310 0 310 0 0 -56 0 -55 33 3 32 3 3 83 3 82 -41
0 -40 0 0 215 0 215 -35 0 -35 0 0 -215 0 -215 -100 0 -100 0 0 215 0 215 -35
0 -35 0 0 -215 0 -215 -100 0 -100 0 0 215 0 215 -35 0 -35 0 0 -245z"/>
<path d="M7152 4216 c3 -215 6 -225 77 -273 70 -48 212 -38 277 19 82 72 63
222 -35 272 -60 31 -107 29 -228 -9 -23 -7 -23 -6 -23 89 l0 96 -36 0 -36 0 4
-194z m298 -51 c37 -36 46 -80 26 -129 -37 -88 -205 -89 -241 -2 -19 44 -19
110 -1 125 28 23 93 41 139 37 36 -2 55 -10 77 -31z"/>
<path d="M1970 4115 l0 -85 60 0 60 0 0 85 0 85 -60 0 -60 0 0 -85z"/>
<path d="M216 4124 c-14 -14 -16 -100 -16 -800 l0 -784 55 0 55 0 0 745 0 745
430 0 430 0 0 55 0 55 -469 0 c-414 0 -471 -2 -485 -16z"/>
<path d="M2140 4055 l0 -85 60 0 60 0 0 85 0 85 -60 0 -60 0 0 -85z"/>
<path d="M2940 4085 l0 -55 60 0 60 0 0 55 0 55 -60 0 -60 0 0 -55z"/>
<path d="M2320 4005 l0 -85 55 0 55 0 0 85 0 85 -55 0 -55 0 0 -85z"/>
<path d="M3120 3975 l0 -55 55 0 55 0 0 55 0 55 -55 0 -55 0 0 -55z"/>
<path d="M430 3860 l0 -60 85 0 85 0 0 60 0 60 -85 0 -85 0 0 -60z"/>
<path d="M717 3913 c-4 -3 -7 -30 -7 -60 l0 -53 85 0 85 0 0 60 0 60 -78 0
c-43 0 -82 -3 -85 -7z"/>
<path d="M1000 3860 l0 -60 55 0 55 0 0 60 0 60 -55 0 -55 0 0 -60z"/>
<path d="M2947 3914 c-4 -4 -7 -31 -7 -61 l0 -53 60 0 61 0 -3 58 -3 57 -50 3
c-28 2 -54 0 -58 -4z"/>
<path d="M1970 3775 l0 -85 60 0 60 0 0 85 0 85 -60 0 -60 0 0 -85z"/>
<path d="M2140 3715 l0 -85 60 0 60 0 0 85 0 85 -60 0 -60 0 0 -85z"/>
<path d="M3120 3745 l0 -55 55 0 55 0 0 55 0 55 -55 0 -55 0 0 -55z"/>
<path d="M2320 3655 l0 -85 55 0 55 0 0 85 0 85 -55 0 -55 0 0 -85z"/>
<path d="M430 3630 l0 -60 85 0 85 0 0 60 0 60 -85 0 -85 0 0 -60z"/>
<path d="M714 3676 c-3 -7 -4 -33 -2 -57 l3 -44 83 -3 82 -3 0 61 0 60 -80 0
c-60 0 -82 -4 -86 -14z"/>
<path d="M1000 3630 l0 -60 55 0 55 0 0 60 0 60 -55 0 -55 0 0 -60z"/>
<path d="M2944 3676 c-3 -7 -4 -33 -2 -57 l3 -44 58 -3 57 -3 0 61 0 60 -55 0
c-38 0 -57 -4 -61 -14z"/>
<path d="M3120 3515 l0 -55 55 0 55 0 0 55 0 55 -55 0 -55 0 0 -55z"/>
<path d="M1970 3425 l0 -86 58 3 57 3 3 83 3 82 -61 0 -60 0 0 -85z"/>
<path d="M430 3400 l0 -60 85 0 85 0 0 60 0 60 -85 0 -85 0 0 -60z"/>
<path d="M712 3403 l3 -58 83 -3 82 -3 0 61 0 60 -85 0 -86 0 3 -57z"/>
<path d="M1000 3400 l0 -60 55 0 55 0 0 60 0 60 -55 0 -55 0 0 -60z"/>
<path d="M2140 3375 l0 -85 60 0 60 0 0 85 0 85 -60 0 -60 0 0 -85z"/>
<path d="M2942 3403 l3 -58 55 0 55 0 3 58 3 57 -61 0 -61 0 3 -57z"/>
<path d="M2320 3315 l0 -85 55 0 55 0 0 85 0 85 -55 0 -55 0 0 -85z"/>
<path d="M3120 3285 l0 -55 55 0 55 0 0 55 0 55 -55 0 -55 0 0 -55z"/>
<path d="M430 3175 l0 -55 85 0 85 0 0 55 0 55 -85 0 -85 0 0 -55z"/>
<path d="M710 3175 l0 -55 85 0 85 0 0 55 0 55 -85 0 -85 0 0 -55z"/>
<path d="M1000 3175 l0 -55 55 0 55 0 0 55 0 55 -55 0 -55 0 0 -55z"/>
<path d="M2940 3175 l0 -55 60 0 60 0 0 55 0 55 -60 0 -60 0 0 -55z"/>
<path d="M1970 3085 l0 -85 60 0 60 0 0 85 0 85 -60 0 -60 0 0 -85z"/>
<path d="M2142 3028 l3 -83 55 0 55 0 3 83 3 82 -61 0 -61 0 3 -82z"/>
<path d="M3120 3055 l0 -55 55 0 55 0 0 55 0 55 -55 0 -55 0 0 -55z"/>
<path d="M2320 2975 l0 -85 55 0 55 0 0 85 0 85 -55 0 -55 0 0 -85z"/>
<path d="M430 2945 l0 -55 85 0 85 0 0 55 0 55 -85 0 -85 0 0 -55z"/>
<path d="M710 2945 l0 -55 85 0 85 0 0 55 0 55 -85 0 -85 0 0 -55z"/>
<path d="M1000 2945 l0 -55 55 0 55 0 0 55 0 55 -55 0 -55 0 0 -55z"/>
<path d="M2940 2945 l0 -55 60 0 60 0 0 55 0 55 -60 0 -60 0 0 -55z"/>
<path d="M3120 2830 l0 -60 55 0 55 0 0 60 0 60 -55 0 -55 0 0 -60z"/>
<path d="M1970 2745 l0 -85 60 0 60 0 0 85 0 85 -60 0 -60 0 0 -85z"/>
<path d="M430 2715 l0 -55 85 0 85 0 0 55 0 55 -85 0 -85 0 0 -55z"/>
<path d="M710 2715 l0 -55 85 0 85 0 0 55 0 55 -85 0 -85 0 0 -55z"/>
<path d="M1000 2715 l0 -55 55 0 55 0 0 55 0 55 -55 0 -55 0 0 -55z"/>
<path d="M2140 2685 l0 -85 60 0 60 0 0 85 0 85 -60 0 -60 0 0 -85z"/>
<path d="M2940 2715 l0 -55 60 0 60 0 0 55 0 55 -60 0 -60 0 0 -55z"/>
<path d="M2320 2625 l0 -85 55 0 55 0 0 85 0 85 -55 0 -55 0 0 -85z"/>
<path d="M3120 2600 l0 -60 55 0 55 0 0 60 0 60 -55 0 -55 0 0 -60z"/>
<path d="M1218 2351 l-33 -29 -3 -111 c-4 -107 -3 -111 17 -111 18 0 21 6 21
40 l0 40 80 0 80 0 0 -40 c0 -34 3 -40 21 -40 20 0 21 4 17 111 l-3 111 -33
29 c-26 24 -41 29 -82 29 -41 0 -56 -5 -82 -29z m145 -32 c10 -13 17 -38 17
-65 l0 -44 -80 0 -80 0 0 41 c0 48 14 77 43 89 32 14 79 3 100 -21z"/>
<path d="M1500 2205 c0 -98 1 -105 20 -105 19 0 20 7 20 90 l0 90 55 0 c42 0
55 3 55 15 0 12 -15 15 -75 15 l-75 0 0 -105z"/>
<path d="M1708 2295 c-31 -18 -52 -73 -43 -115 10 -45 58 -80 109 -80 46 0 94
26 78 42 -6 6 -17 6 -30 -1 -11 -6 -31 -11 -44 -11 -25 0 -68 25 -68 39 0 5
28 14 63 20 34 7 70 14 80 17 26 8 21 42 -12 75 -34 33 -87 39 -133 14z m107
-35 c22 -24 18 -29 -32 -41 -82 -19 -107 -3 -63 41 26 26 72 26 95 0z"/>
<path d="M1930 2205 c0 -98 1 -105 20 -105 17 0 20 7 20 45 l0 45 60 0 60 0 0
-45 c0 -38 3 -45 20 -45 19 0 20 7 20 105 0 98 -1 105 -20 105 -17 0 -20 -7
-20 -45 l0 -45 -60 0 -60 0 0 45 c0 38 -3 45 -20 45 -19 0 -20 -7 -20 -105z"/>
<path d="M2234 2299 c-27 -14 -54 -60 -54 -94 0 -35 27 -81 57 -94 40 -18 97
-13 122 10 18 17 20 23 10 30 -8 5 -23 2 -36 -6 -32 -22 -61 -18 -88 10 -65
64 17 162 92 110 17 -12 23 -12 32 -1 27 33 -81 60 -135 35z"/>
<path d="M2430 2205 c0 -98 1 -105 20 -105 18 0 20 7 20 74 0 66 3 77 22 90
27 19 59 21 76 4 7 -7 12 -43 12 -90 0 -70 2 -78 19 -78 16 0 19 9 23 69 4 77
24 111 64 111 41 0 54 -25 54 -106 0 -67 2 -74 20 -74 18 0 20 7 20 79 0 101
-19 131 -84 131 -23 0 -51 -6 -62 -14 -17 -12 -22 -12 -39 0 -23 17 -97 18
-113 2 -9 -9 -12 -9 -12 0 0 7 -9 12 -20 12 -19 0 -20 -7 -20 -105z"/>
<path d="M2850 2205 l0 -105 70 0 c61 0 74 3 95 24 25 25 25 55 -1 77 -11 9
-11 13 1 26 8 8 15 23 15 33 0 33 -39 50 -112 50 l-68 0 0 -105z m136 60 c10
-25 -16 -45 -57 -45 -37 0 -39 2 -39 30 0 29 2 30 45 30 32 0 47 -5 51 -15z
m4 -90 c20 -25 -5 -45 -56 -45 -42 0 -44 1 -44 30 0 29 2 30 44 30 26 0 48 -6
56 -15z"/>
<path d="M3121 2294 c-35 -25 -52 -74 -40 -117 13 -49 51 -77 103 -77 50 0 83
21 102 66 30 72 -20 144 -100 144 -23 0 -52 -7 -65 -16z m106 -29 c43 -30 36
-105 -11 -126 -35 -16 -73 -3 -91 31 -37 71 37 140 102 95z"/>
<path d="M3460 2205 c0 -98 1 -105 20 -105 17 0 20 7 20 45 l0 45 60 0 60 0 0
-45 c0 -38 3 -45 20 -45 19 0 20 7 20 105 0 98 -1 105 -20 105 -17 0 -20 -7
-20 -45 l0 -45 -60 0 -60 0 0 45 c0 38 -3 45 -20 45 -19 0 -20 -7 -20 -105z"/>
<path d="M3757 2299 c-23 -13 -47 -62 -47 -94 0 -38 24 -79 55 -93 53 -24 135
-9 135 25 0 11 -6 14 -22 8 -54 -16 -69 -16 -93 -1 -14 9 -25 21 -25 26 0 5
26 14 58 20 102 20 102 19 102 41 0 11 -13 34 -29 50 -24 23 -38 29 -73 29
-24 0 -51 -5 -61 -11z m108 -39 c22 -24 18 -29 -32 -41 -82 -19 -107 -3 -63
41 26 26 72 26 95 0z"/>
<path d="M3989 2282 c-26 -24 -32 -36 -32 -72 0 -36 6 -48 32 -72 34 -30 85
-37 123 -17 25 14 31 8 23 -24 -10 -38 -60 -52 -113 -34 -23 8 -44 12 -47 9
-38 -38 92 -70 154 -37 39 20 51 61 51 176 0 92 -1 99 -20 99 -12 0 -20 -7
-20 -17 0 -15 -1 -15 -18 0 -30 28 -96 22 -133 -11z m128 -24 c30 -28 29 -63
-3 -95 -20 -20 -31 -24 -57 -19 -42 9 -60 28 -60 67 0 62 74 91 120 47z"/>
<path d="M4250 2205 l0 -105 75 0 c62 0 79 4 95 20 24 24 25 47 3 72 -13 14
-14 21 -5 30 19 19 14 56 -10 72 -15 11 -45 16 -90 16 l-68 0 0 -105z m135 45
c0 -23 -4 -25 -47 -28 -48 -3 -48 -3 -48 28 0 31 0 31 48 28 43 -3 47 -5 47
-28z m13 -84 c5 -25 -14 -36 -65 -36 -41 0 -43 1 -43 31 l0 30 52 -3 c42 -2
54 -7 56 -22z"/>
<path d="M4491 2224 c4 -76 7 -88 28 -105 25 -21 81 -25 112 -9 13 7 19 7 19
0 0 -5 9 -10 20 -10 19 0 20 7 20 105 0 98 -1 105 -20 105 -17 0 -19 -8 -22
-77 -3 -73 -5 -78 -30 -93 -25 -13 -31 -13 -55 0 -26 15 -28 20 -31 93 -3 70
-5 77 -23 77 -20 0 -21 -5 -18 -86z"/>
<path d="M4770 2266 c16 -25 30 -50 30 -56 0 -6 -13 -31 -30 -55 -35 -51 -36
-55 -10 -55 11 0 31 18 50 45 19 27 39 45 50 45 17 0 20 -7 20 -45 0 -38 3
-45 20 -45 17 0 20 7 20 45 0 62 28 62 67 0 20 -32 35 -45 51 -45 25 0 25 0
-20 68 l-29 42 31 44 c35 52 36 56 13 56 -10 0 -30 -20 -46 -45 -39 -62 -67
-62 -67 0 0 38 -3 45 -20 45 -17 0 -20 -7 -20 -45 0 -39 -3 -45 -20 -45 -14 0
-30 15 -48 45 -19 31 -34 44 -50 45 -23 0 -23 0 8 -44z"/>
<path d="M5092 2230 c6 -100 27 -130 93 -130 22 0 47 6 54 13 11 10 14 10 18
0 3 -7 13 -13 24 -13 18 0 19 8 19 105 0 96 -2 105 -19 105 -16 0 -19 -10 -23
-71 -3 -60 -8 -74 -27 -90 -28 -23 -50 -24 -76 -5 -16 11 -20 30 -23 90 -4 68
-6 76 -24 76 -19 0 -20 -5 -16 -80z"/>
<path d="M5370 2206 c0 -99 1 -106 20 -106 18 0 20 7 20 73 l0 72 37 -62 c21
-35 41 -63 45 -63 4 0 25 30 47 68 l41 67 0 -77 c0 -63 3 -78 15 -78 12 0 15
18 15 105 0 93 -2 105 -17 105 -12 0 -33 -26 -59 -71 l-41 -71 -40 69 c-27 47
-46 69 -61 71 -22 3 -22 1 -22 -102z"/>
<path d="M5717 2299 c-9 -5 -24 -23 -32 -39 -41 -79 8 -160 96 -160 106 0 148
125 65 192 -24 20 -100 24 -129 7z m110 -41 c31 -29 30 -72 -2 -103 -47 -48
-115 -19 -115 50 0 67 69 99 117 53z"/>
<path d="M5965 2288 c-77 -68 -32 -188 70 -188 50 0 101 33 76 49 -10 6 -21 5
-35 -5 -49 -34 -110 -1 -110 61 0 62 61 95 110 61 14 -10 25 -11 35 -5 12 8
10 13 -10 29 -33 28 -102 27 -136 -2z"/>
<path d="M6170 2205 c0 -98 1 -105 20 -105 18 0 20 7 20 70 0 78 19 110 63
110 42 0 57 -29 57 -108 0 -65 2 -72 20 -72 18 0 20 7 20 70 0 78 19 110 64
110 39 0 56 -35 56 -112 0 -61 2 -68 20 -68 18 0 20 7 20 64 0 73 -14 122 -40
136 -29 15 -91 12 -111 -6 -16 -15 -20 -15 -41 0 -26 18 -80 21 -109 6 -13 -7
-19 -7 -19 0 0 5 -9 10 -20 10 -19 0 -20 -7 -20 -105z"/>
<path d="M6590 2226 c0 -79 2 -86 26 -105 30 -24 92 -28 113 -8 11 10 14 10
18 0 3 -7 13 -13 24 -13 18 0 19 8 19 105 0 96 -2 105 -19 105 -16 0 -19 -9
-23 -75 -4 -80 -19 -104 -65 -105 -40 0 -53 25 -53 106 0 67 -2 74 -20 74 -18
0 -20 -7 -20 -84z"/>
<path d="M2610 1805 c0 -85 3 -105 15 -105 11 0 15 18 17 78 l3 77 35 -62 c19
-35 39 -63 45 -63 5 0 26 28 45 63 l35 62 3 -77 c4 -117 22 -95 22 27 0 58 -3
105 -7 105 -5 0 -28 -34 -51 -75 -24 -41 -45 -75 -47 -75 -2 0 -23 34 -47 75
-23 41 -49 75 -55 75 -10 0 -13 -28 -13 -105z"/>
<path d="M4260 1805 c0 -63 4 -105 10 -105 6 0 10 38 10 95 l0 95 54 0 c30 0
58 5 61 10 4 6 -20 10 -64 10 l-71 0 0 -105z"/>
<path d="M2909 1831 c-33 -33 -35 -50 -14 -90 16 -32 33 -41 74 -41 68 0 99
97 45 139 -37 29 -70 26 -105 -8z m93 -8 c22 -20 24 -66 2 -87 -18 -19 -65
-21 -82 -4 -17 17 -15 68 5 90 20 22 51 23 75 1z"/>
<path d="M3090 1780 c0 -47 4 -80 10 -80 6 0 10 30 10 70 l0 70 45 0 c25 0 45
5 45 10 0 6 -25 10 -55 10 l-55 0 0 -80z"/>
<path d="M3230 1796 c0 -45 5 -69 16 -80 18 -19 75 -21 92 -4 9 9 12 9 12 0 0
-7 5 -12 10 -12 6 0 10 33 10 80 0 47 -4 80 -10 80 -5 0 -10 -23 -10 -51 0
-65 -13 -89 -48 -89 -41 0 -52 17 -52 82 0 32 -4 58 -10 58 -6 0 -10 -28 -10
-64z"/>
<path d="M3447 1853 c-4 -3 -7 -30 -7 -59 0 -42 -5 -58 -22 -74 l-22 -20 22 0
c27 0 42 33 42 96 l0 44 40 0 40 0 0 -70 c0 -40 4 -70 10 -70 6 0 10 33 10 80
l0 80 -53 0 c-30 0 -57 -3 -60 -7z"/>
<path d="M3642 1844 c-32 -22 -43 -57 -31 -94 13 -35 35 -50 76 -50 34 0 72
23 55 34 -6 3 -13 2 -17 -4 -10 -16 -62 -12 -80 7 -16 16 -16 17 3 24 10 4 40
11 66 14 53 8 58 23 21 60 -28 29 -61 32 -93 9z m82 -26 c14 -22 10 -25 -46
-33 -40 -6 -48 -5 -48 8 0 43 71 62 94 25z"/>
<path d="M3800 1780 l0 -80 53 0 c28 0 57 4 63 8 19 13 23 39 8 60 -9 13 -11
23 -4 27 17 10 11 44 -9 55 -11 5 -40 10 -65 10 l-46 0 0 -80z m105 35 c0 -16
-8 -21 -42 -23 -40 -3 -43 -2 -43 23 0 25 3 26 43 23 34 -2 42 -7 42 -23z m3
-72 c3 -21 -1 -23 -42 -23 -43 0 -46 2 -46 26 0 23 3 25 43 22 35 -2 43 -7 45
-25z"/>
<path d="M4445 1835 c-23 -22 -25 -32 -25 -110 0 -50 4 -85 10 -85 6 0 10 18
10 40 0 37 2 40 19 30 36 -19 78 -12 100 16 43 55 8 134 -59 134 -19 0 -40 -9
-55 -25z m95 -15 c39 -39 14 -100 -41 -100 -30 0 -59 31 -59 62 0 24 35 58 60
58 11 0 29 -9 40 -20z"/>
<path d="M4653 1850 c-47 -19 -57 -87 -18 -125 34 -35 86 -34 114 1 56 71 -11
158 -96 124z m81 -32 c9 -12 16 -31 16 -42 0 -52 -75 -76 -104 -34 -21 30 -20
54 4 78 27 27 65 26 84 -2z"/>
<path d="M4825 1835 c-51 -50 -19 -125 53 -125 21 0 43 5 50 12 9 9 12 6 12
-13 0 -14 -5 -30 -12 -37 -15 -15 -62 -16 -88 -2 -13 7 -21 7 -25 0 -8 -12 36
-30 76 -30 54 0 69 28 69 130 0 80 -10 113 -23 78 -4 -10 -7 -10 -18 0 -22 20
-68 14 -94 -13z m97 -12 c20 -18 24 -63 6 -81 -17 -17 -74 -15 -92 4 -22 21
-20 50 4 74 24 24 57 26 82 3z"/>
<path d="M5026 1853 c-3 -3 -6 -39 -6 -80 0 -58 3 -73 15 -73 10 0 15 11 15
35 0 35 0 35 45 35 45 0 45 0 45 -35 0 -25 4 -35 15 -35 13 0 15 13 13 75 -3
76 -20 107 -26 48 -3 -32 -5 -33 -48 -33 -42 0 -44 1 -44 29 0 30 -12 46 -24
34z"/>
<path d="M5253 1850 c-47 -19 -57 -87 -18 -125 34 -35 86 -34 114 1 56 71 -11
158 -96 124z m81 -32 c9 -12 16 -31 16 -42 0 -52 -75 -76 -104 -34 -21 30 -20
54 4 78 27 27 65 26 84 -2z"/>
<path d="M4050 1780 c0 -5 18 -10 40 -10 22 0 40 5 40 10 0 6 -18 10 -40 10
-22 0 -40 -4 -40 -10z"/>
<path d="M4021 970 c-119 -29 -160 -71 -168 -174 -10 -124 40 -196 135 -196
54 0 97 24 117 66 60 127 -81 248 -189 163 -22 -17 -26 -18 -26 -4 0 56 49 93
153 116 44 9 57 16 57 31 0 10 -1 18 -2 17 -2 -1 -36 -9 -77 -19z m34 -175
c19 -18 25 -35 25 -70 0 -59 -32 -95 -85 -95 -47 0 -71 14 -91 52 -34 66 11
138 88 138 28 0 46 -7 63 -25z"/>
<path d="M800 775 c0 -167 1 -175 20 -175 18 0 20 8 22 130 l3 130 64 -110
c36 -60 68 -110 72 -110 4 0 38 53 76 118 l68 117 3 -137 c2 -114 5 -138 17
-138 13 0 15 28 15 175 0 145 -2 175 -14 175 -8 0 -47 -56 -86 -125 -39 -69
-75 -125 -78 -125 -4 0 -40 57 -80 125 -41 71 -79 125 -87 125 -13 0 -15 -27
-15 -175z"/>
<path d="M1824 861 c-43 -11 -54 -19 -48 -36 5 -11 11 -12 24 -5 46 25 140 4
140 -30 0 -21 -34 -40 -71 -40 -28 0 -39 -4 -39 -15 0 -11 11 -15 43 -15 69 0
99 -52 46 -80 -24 -13 -95 -13 -121 1 -12 7 -24 7 -29 2 -33 -33 114 -58 169
-29 50 26 56 97 10 112 l-21 6 21 17 c20 16 25 30 23 63 -2 37 -85 64 -147 49z"/>
<path d="M2463 859 c-68 -20 -108 -107 -81 -177 28 -74 133 -108 192 -61 l26
20 0 -20 c0 -14 6 -21 20 -21 19 0 20 7 20 130 0 123 -1 130 -20 130 -13 0
-20 -7 -20 -20 0 -21 0 -21 -27 -1 -36 26 -70 32 -110 20z m111 -54 c44 -41
32 -140 -21 -164 -71 -32 -143 13 -143 89 0 87 101 133 164 75z"/>
<path d="M3106 859 c-147 -43 -113 -259 42 -259 43 0 102 23 102 40 0 18 -20
21 -42 6 -12 -9 -40 -16 -61 -16 -30 0 -45 7 -70 32 l-32 32 55 12 c30 7 81
17 113 24 53 11 57 14 51 33 -22 74 -90 116 -158 96z m99 -54 c14 -13 25 -29
25 -34 0 -11 -7 -13 -112 -35 l-68 -14 0 30 c0 44 39 78 90 78 30 0 47 -6 65
-25z"/>
<path d="M4266 860 c-85 -26 -122 -128 -73 -201 28 -42 60 -59 112 -59 162 0
180 235 20 263 -16 3 -43 2 -59 -3z m108 -61 c57 -67 15 -169 -69 -169 -83 0
-128 111 -70 174 19 21 33 26 69 26 37 0 48 -5 70 -31z"/>
<path d="M5643 859 c-17 -5 -43 -23 -57 -39 -75 -90 -16 -220 101 -220 44 0
103 23 103 40 0 18 -20 21 -42 6 -46 -33 -148 -5 -148 40 0 8 1 14 3 14 14 0
200 39 203 43 20 20 -55 117 -91 117 -7 0 -19 2 -27 4 -7 2 -27 0 -45 -5z
m102 -54 c14 -13 25 -29 25 -34 0 -11 -7 -13 -112 -35 l-68 -14 0 28 c0 72
103 108 155 55z"/>
<path d="M1262 755 c5 -118 15 -138 77 -155 49 -13 106 3 128 37 57 86 -32
181 -130 139 l-37 -15 0 50 c0 43 -2 49 -21 49 -21 0 -21 -3 -17 -105z m166
-15 c12 -12 22 -32 22 -46 0 -32 -42 -74 -75 -74 -35 0 -75 42 -75 79 0 56 83
83 128 41z"/>
<path d="M1530 730 c0 -109 2 -130 15 -130 13 0 15 21 15 130 0 109 -2 130
-15 130 -13 0 -15 -21 -15 -130z"/>
<path d="M2060 730 c0 -123 1 -130 20 -130 18 0 20 7 20 60 l0 60 80 0 80 0 0
-60 c0 -53 2 -60 20 -60 19 0 20 7 20 130 0 123 -1 130 -20 130 -18 0 -20 -7
-20 -55 l0 -55 -80 0 -80 0 0 55 c0 48 -2 55 -20 55 -19 0 -20 -7 -20 -130z"/>
<path d="M2710 810 c0 -60 15 -94 47 -109 30 -14 83 -14 117 -1 26 9 26 9 26
-45 0 -48 2 -55 20 -55 19 0 20 7 20 130 0 123 -1 130 -20 130 -18 0 -20 -7
-20 -64 0 -71 -5 -76 -82 -76 -52 0 -68 20 -68 86 0 47 -2 54 -20 54 -17 0
-20 -7 -20 -50z"/>
<path d="M3340 730 c0 -108 3 -130 15 -130 11 0 15 20 17 102 l3 102 50 -83
c28 -47 55 -86 60 -88 6 -2 34 36 63 84 l52 88 0 -102 c0 -85 3 -103 15 -103
13 0 15 21 15 130 0 161 -8 165 -82 40 -29 -49 -55 -90 -58 -90 -3 0 -29 41
-58 90 -38 65 -58 90 -72 90 -19 0 -20 -8 -20 -130z"/>
<path d="M4527 768 c-6 -108 -11 -126 -43 -139 -35 -13 -29 -31 8 -27 41 4 58
36 65 122 8 110 5 106 73 106 l60 0 0 -115 c0 -108 1 -115 20 -115 19 0 20 7
20 130 l0 130 -99 0 -98 0 -6 -92z"/>
<path d="M4820 761 c0 -83 3 -102 20 -124 29 -36 79 -51 128 -38 52 15 77 43
77 91 0 75 -74 117 -148 86 l-37 -15 0 50 c0 42 -3 49 -20 49 -19 0 -20 -7
-20 -99z m170 -21 c49 -49 2 -128 -70 -116 -42 7 -60 29 -60 72 0 59 86 88
130 44z"/>
<path d="M5120 730 l0 -130 180 0 180 0 0 130 c0 123 -1 130 -20 130 -19 0
-20 -7 -20 -115 l0 -115 -60 0 -60 0 0 115 c0 108 -1 115 -20 115 -19 0 -20
-7 -20 -115 l0 -115 -65 0 -65 0 0 115 c0 96 -3 115 -15 115 -13 0 -15 -21
-15 -130z"/>
<path d="M5864 635 c-4 -8 -1 -21 5 -29 6 -7 9 -15 7 -17 -2 -2 -6 -16 -10
-31 -4 -20 -3 -28 7 -28 15 0 42 93 32 110 -9 15 -35 12 -41 -5z"/>
<path d="M3473 379 c-17 -5 -43 -23 -57 -39 -75 -90 -16 -220 101 -220 44 0
103 23 103 40 0 18 -20 21 -42 6 -45 -32 -122 -14 -148 33 -9 17 -1 20 83 36
134 25 130 23 122 53 -16 67 -93 110 -162 91z m102 -54 c14 -13 25 -29 25 -34
0 -11 -7 -13 -112 -35 l-68 -14 0 28 c0 72 103 108 155 55z"/>
<path d="M5772 380 c-114 -26 -131 -192 -25 -236 46 -20 93 -17 131 6 l32 20
0 -25 c0 -81 -69 -115 -160 -79 -51 21 -77 6 -37 -21 39 -25 127 -31 169 -11
53 25 61 53 66 209 4 134 3 137 -17 137 -14 0 -21 -6 -21 -20 0 -20 0 -20 -27
-1 -35 24 -69 31 -111 21z m109 -59 c54 -54 28 -143 -47 -157 -98 -18 -163 89
-95 157 41 41 101 41 142 0z"/>
<path d="M6476 380 c-15 -5 -37 -17 -47 -26 -18 -16 -19 -16 -19 4 0 13 -6 22
-15 22 -13 0 -15 -21 -15 -130 0 -123 1 -130 20 -130 19 0 20 7 20 93 0 85 2
96 23 115 34 32 89 30 116 -4 18 -23 21 -41 21 -115 0 -69 3 -89 14 -89 10 0
15 22 18 90 4 77 7 93 28 115 33 35 91 35 119 -1 18 -23 21 -41 21 -115 0 -72
3 -89 15 -89 12 0 15 18 15 103 0 101 -1 104 -29 131 -22 21 -40 29 -68 29
-42 0 -103 -27 -103 -45 0 -6 -12 1 -26 16 -15 14 -32 26 -40 26 -7 0 -18 2
-26 4 -7 2 -26 0 -42 -4z"/>
<path d="M6965 375 c-22 -8 -41 -15 -42 -15 -1 0 -11 -16 -23 -36 -32 -51 -24
-124 18 -167 26 -26 41 -31 89 -35 47 -3 63 0 82 15 31 25 20 50 -12 28 -26
-18 -80 -20 -110 -3 -22 11 -46 37 -47 49 0 4 39 14 88 23 48 10 95 19 105 22
25 8 21 48 -8 83 -23 27 -37 34 -85 46 -8 2 -33 -2 -55 -10z m96 -38 c9 -7 21
-22 28 -34 10 -20 9 -23 -11 -28 -86 -19 -116 -25 -142 -25 -26 0 -28 2 -22
28 14 59 101 94 147 59z"/>
<path d="M3080 336 c0 -89 31 -126 105 -126 18 0 45 4 59 10 26 9 26 9 26 -45
0 -48 2 -55 20 -55 19 0 20 7 20 130 0 123 -1 130 -20 130 -18 0 -20 -7 -20
-64 0 -71 -5 -76 -81 -76 -50 0 -69 24 -69 88 0 45 -3 52 -20 52 -17 0 -20 -7
-20 -44z"/>
<path d="M3710 250 c0 -108 3 -130 15 -130 11 0 15 20 17 103 l3 102 53 -87
c29 -49 57 -88 61 -88 4 0 29 37 57 82 l49 82 3 -97 c2 -89 4 -97 22 -97 19 0
20 7 20 130 0 122 -1 130 -20 130 -14 0 -34 -25 -72 -90 -29 -49 -55 -90 -58
-90 -3 0 -29 41 -58 90 -38 65 -58 90 -72 90 -19 0 -20 -8 -20 -130z"/>
<path d="M4240 249 l0 -131 91 4 c81 3 93 6 110 27 26 32 24 66 -5 89 -24 18
-24 19 -5 35 26 23 24 59 -4 85 -20 19 -35 22 -105 22 l-82 0 0 -131z m168 67
c5 -37 -10 -46 -80 -46 l-58 0 0 40 0 41 68 -3 c66 -3 67 -4 70 -32z m-7 -86
c21 -12 25 -50 7 -68 -7 -7 -39 -12 -75 -12 l-63 0 0 45 0 45 56 0 c30 0 64
-5 75 -10z"/>
<path d="M4532 276 c3 -85 7 -108 22 -125 44 -49 150 -45 183 6 57 86 -32 181
-130 139 l-37 -15 0 50 c0 43 -2 49 -21 49 -21 0 -21 -4 -17 -104z m165 -18
c13 -12 23 -32 23 -45 0 -32 -43 -73 -75 -73 -35 0 -75 42 -75 79 0 57 81 82
127 39z"/>
<path d="M4800 250 c0 -109 2 -130 15 -130 13 0 15 21 15 130 0 109 -2 130
-15 130 -13 0 -15 -21 -15 -130z"/>
<path d="M5060 249 l0 -131 96 4 c86 3 98 5 115 27 25 31 24 57 -4 85 -23 23
-23 24 -5 46 25 31 23 55 -8 79 -22 17 -41 21 -110 21 l-84 0 0 -131z m174 79
c21 -34 -4 -53 -73 -56 l-61 -3 0 41 0 41 61 -3 c46 -2 65 -8 73 -20z m-3 -98
c21 -12 25 -50 7 -68 -7 -7 -39 -12 -75 -12 l-63 0 0 45 0 45 56 0 c30 0 64
-5 75 -10z"/>
<path d="M5360 290 c0 -102 15 -145 56 -160 43 -17 99 -12 128 11 l26 20 0
-20 c0 -12 6 -21 15 -21 13 0 15 21 15 130 0 103 -3 130 -14 130 -10 0 -15
-24 -18 -92 -5 -84 -8 -94 -32 -115 -34 -29 -88 -31 -116 -3 -17 17 -20 33
-20 115 0 88 -1 95 -20 95 -19 0 -20 -7 -20 -90z"/>
<path d="M6040 279 c0 -98 1 -101 29 -130 34 -34 92 -39 141 -14 27 14 30 14
30 0 0 -8 9 -15 20 -15 19 0 20 7 20 130 0 123 -1 130 -20 130 -19 0 -20 -7
-20 -90 0 -83 -2 -93 -25 -115 -30 -31 -83 -33 -116 -6 -22 17 -24 29 -27 115
-3 74 -7 96 -18 96 -11 0 -14 -21 -14 -101z"/>
<path d="M7187 157 c-8 -21 8 -39 29 -35 27 5 25 42 -2 46 -12 2 -24 -3 -27
-11z"/>
</g>
</svg>
