<svg width="22" height="18" viewBox="0 0 22 18" fill="none" xmlns="http://www.w3.org/2000/svg">
<path d="M20.1341 0.595443C17.2318 1.72675 4.78716 6.57808 1.34872 7.9003C-0.957257 8.74723 0.392692 9.54132 0.392692 9.54132C0.392692 9.54132 2.36112 10.1765 4.04862 10.6529C5.73588 11.1293 6.63576 10.6 6.63576 10.6L14.5661 5.57132C17.3783 3.77158 16.7034 5.25364 16.0283 5.889C14.5661 7.26539 12.1476 9.43542 10.1228 11.1823C9.22291 11.9234 9.67274 12.5585 10.0667 12.8762C11.5289 14.0408 15.5224 16.4228 15.7472 16.5816C16.9353 17.3732 19.2724 18.5127 19.6279 16.1051L21.034 7.79463C21.484 4.98924 21.9339 2.39541 21.99 1.65438C22.1589 -0.145588 20.1341 0.595443 20.1341 0.595443Z" fill="#1B1B1B"/>
</svg>
